<svg xmlns="http://www.w3.org/2000/svg" width="176" height="176" viewBox="0 0 176 176">
    <path fill="#000" fill-rule="evenodd" d="M95.94 14.42c-1.684 2.246-4.77 5.51-8.862 9.047-11.993-8.555-22.782-14.345-29.752-17.71A88.311 88.311 0 0 1 97.306.42l.035.64c.287 5.008.61 10.685-1.4 13.36zm43.902 50.202c12.455-1.427 25.962 14.67 36.158 27.33-.889 22.807-10.286 43.396-25.083 58.626-1.425-24.111-7.249-57.393-22.186-83.736 3.125-1.008 6.778-1.726 11.11-2.22zM52.22 42.397c-3.535.742-7.2 1.43-10.746 2.094-10.96 2.055-22.119 4.164-32.423 8.309 7.928-17.942 21.553-32.75 38.581-42.044 2.723 1.127 16.412 7.05 32.825 18.464-7.867 5.633-17.734 10.97-28.237 13.177zm60.42 1.443c8.928-5.773 16.441-9.712 21.159-11.162 7.192-2.208 14.248-3.538 20.577-4.322C165.972 41.68 173.755 58.576 176 77.244c-10.474-12.314-22.678-23.5-36.402-21.902-5.825.677-10.691 1.816-14.825 3.422-2.838-4.264-5.933-8.293-9.345-11.978-.924-1-1.855-1.981-2.788-2.946zm-11.802 46.343c-1.442 4.88-3.193 12.41-5.222 21.132-4.223 18.158-11.328 48.689-18.876 63.707-20.731-2.862-39.147-12.952-52.603-27.665 4.031-35.037 48.363-75.476 80.726-97.49 1.326 1.3 2.646 2.623 3.952 3.993 2.822 2.961 5.427 6.22 7.848 9.694-8.067 5.692-12.23 14.463-15.825 26.629zM63.274 70.696c-18.92 17.517-41.028 42.51-47.473 68.148C5.853 124.51 0 107.09 0 88.288a88.905 88.905 0 0 1 3.37-24.23c11.184-6.27 24.483-8.773 38.338-11.358 3.596-.67 7.315-1.365 10.947-2.124 12.97-2.71 24.886-9.48 33.987-16.354a189.2 189.2 0 0 1 10.912 8.984c-10.957 7.57-22.936 16.987-34.28 27.49zm40.984-33.54a197.759 197.759 0 0 0-11.732-9.327c3.954-3.347 6.993-6.431 8.789-8.68 3.78-4.737 3.63-11.256 3.285-17.193 15.576 2.944 29.686 9.698 41.229 19.175-4.996.806-10.27 1.911-15.648 3.429-5.988 1.688-15.218 6.147-25.923 12.596zm4.203 54.328c3.093-10.74 6.2-17.661 11.971-22.062 14.883 26.543 20.791 62.3 21.374 87.578-14.745 11.89-33.325 19-53.536 19-.933 0-1.859-.042-2.784-.072 6.52-14.694 12.103-37.736 17.937-63.486 1.976-8.72 3.684-16.253 5.038-20.958z" opacity=".1"/>
</svg>
