<?xml version="1.0" encoding="utf-8"?><svg xmlns="http://www.w3.org/2000/svg" xmlns:xlink="http://www.w3.org/1999/xlink"><symbol viewBox="0 0 18 20" id="android"><path fill-rule="evenodd" d="M11.125 20c-.68 0-1.274-.583-1.274-1.252v-2.924H8.149v2.924c0 .669-.593 1.252-1.274 1.252-.68 0-1.274-.583-1.274-1.252v-2.924H4.75c-.51 0-.85-.334-.85-.835v-8.35h10.2v8.35c0 .501-.34.835-.85.835h-.85v2.924c0 .669-.594 1.252-1.275 1.252zm5.1-5.011c-.68 0-1.273-.584-1.273-1.252V7.889c0-.665.593-1.25 1.274-1.25.68 0 1.274.585 1.274 1.25v5.848c0 .668-.593 1.252-1.274 1.252zm-14.45 0c-.682 0-1.275-.584-1.275-1.252V7.889c0-.665.593-1.25 1.274-1.25.68 0 1.274.585 1.274 1.25v5.848c0 .668-.593 1.252-1.274 1.252zM13.08.126c.17.167.17.416 0 .583l-1.104 1.084c.355.234.678.52.958.846.672.782 1.1 1.8 1.16 2.902l.002.034c.003.075.005.15.005.227H3.899c0-.076.002-.152.005-.227l.003-.034a4.86 4.86 0 0 1 1.158-2.902c.28-.327.603-.612.959-.846L4.92.71a.396.396 0 0 1 0-.583.412.412 0 0 1 .594 0l1.14 1.118.053.051c.677-.333 1.436-.499 2.28-.5h.025c.845.001 1.604.167 2.28.5l.053-.051L12.486.126a.412.412 0 0 1 .594 0zM6.873 4.342c.352 0 .638-.28.638-.626a.632.632 0 0 0-.638-.626.632.632 0 0 0-.637.626c0 .346.285.626.637.626zm4.254 0c.352 0 .637-.28.637-.626a.632.632 0 0 0-.637-.626.632.632 0 0 0-.638.626c0 .346.286.626.638.626z" opacity=".7"/></symbol><symbol viewBox="0 0 223 65" id="app-store"><g fill-rule="evenodd"><path d="M215.066 65H7.812C3.505 65 0 61.542 0 57.309V7.679C0 3.446 3.505 0 7.812 0h207.254C219.371 0 223 3.445 223 7.68v49.629c0 4.233-3.63 7.691-7.934 7.691z"/><path d="M221.384 57.217c0 3.424-2.83 6.198-6.328 6.198H7.953c-3.498 0-6.337-2.774-6.337-6.198V7.79c0-3.422 2.839-6.206 6.337-6.206h207.1c3.502 0 6.33 2.784 6.33 6.206l.001 49.426z"/><path d="M50.301 32.205c.053 6.36 5.46 8.463 5.527 8.486-.033.148-.847 3.034-2.875 5.964-1.694 2.58-3.468 5.102-6.286 5.148-2.738.065-3.659-1.641-6.798-1.641-3.17 0-4.15 1.595-6.776 1.706-2.684.1-4.735-2.755-6.49-5.311-3.508-5.221-6.239-14.712-2.577-21.17 1.774-3.168 5.01-5.208 8.467-5.262 2.688-.056 5.181 1.848 6.833 1.848 1.619 0 4.702-2.278 7.88-1.937 1.33.04 5.115.535 7.557 4.162-.197.12-4.509 2.701-4.462 8.007zM45.13 16.601c-1.474 1.772-3.831 3.127-6.128 2.952-.3-2.39.863-4.932 2.166-6.483 1.472-1.76 4.028-3.108 6.072-3.2.269 2.484-.698 4.932-2.11 6.731z"/><path fill-rule="nonzero" d="M88.768 51.53h-3.76l-2.06-6.196h-7.16l-1.963 6.197h-3.66l7.093-21.098h4.381l7.129 21.098zm-6.441-8.796l-1.863-5.51c-.197-.562-.567-1.888-1.111-3.974h-.067c-.216.897-.566 2.223-1.046 3.974l-1.83 5.51h5.917zm24.683 1.003c0 2.587-.73 4.633-2.19 6.134-1.309 1.336-2.933 2.004-4.872 2.004-2.093 0-3.596-.72-4.512-2.16h-.066v8.015h-3.53V41.326a99.89 99.89 0 0 0-.131-5.008h3.104l.197 2.41h.067c1.177-1.816 2.963-2.723 5.361-2.723 1.875 0 3.44.709 4.691 2.128 1.255 1.42 1.881 3.288 1.881 5.604zm-3.596.124c0-1.481-.348-2.702-1.047-3.662-.763-1.002-1.788-1.503-3.073-1.503-.871 0-1.662.279-2.37.829a3.824 3.824 0 0 0-1.389 2.176c-.11.419-.164.761-.164 1.031v2.537c0 1.106.355 2.04 1.063 2.802.709.763 1.63 1.144 2.762 1.144 1.33 0 2.365-.492 3.105-1.472.742-.981 1.113-2.275 1.113-3.882zm21.872-.124c0 2.587-.73 4.633-2.193 6.134-1.306 1.336-2.93 2.004-4.87 2.004-2.092 0-3.596-.72-4.51-2.16h-.066v8.015h-3.53V41.326a99.89 99.89 0 0 0-.131-5.008h3.104l.197 2.41h.067c1.175-1.816 2.962-2.723 5.361-2.723 1.873 0 3.438.709 4.693 2.128 1.25 1.42 1.878 3.288 1.878 5.604zm-3.597.124c0-1.481-.35-2.702-1.048-3.662-.763-1.002-1.785-1.503-3.072-1.503-.872 0-1.662.279-2.37.829a3.822 3.822 0 0 0-1.388 2.176c-.108.419-.164.761-.164 1.031v2.537c0 1.106.354 2.04 1.06 2.802.708.761 1.629 1.144 2.765 1.144 1.33 0 2.364-.492 3.105-1.472.741-.981 1.112-2.275 1.112-3.882z"/><path d="M145.719 45.614c0 1.795-.65 3.255-1.957 4.382-1.436 1.232-3.435 1.847-6.003 1.847-2.371 0-4.272-.438-5.71-1.314l.817-2.817c1.55.897 3.25 1.347 5.103 1.347 1.33 0 2.365-.288 3.108-.862.74-.574 1.11-1.345 1.11-2.305 0-.857-.305-1.578-.916-2.163-.607-.585-1.623-1.129-3.04-1.631-3.858-1.378-5.785-3.396-5.785-6.05 0-1.734.675-3.156 2.028-4.263 1.348-1.108 3.146-1.661 5.395-1.661 2.005 0 3.67.334 5 1.001l-.882 2.756c-1.242-.647-2.646-.97-4.218-.97-1.242 0-2.212.293-2.907.876-.588.522-.883 1.158-.883 1.91 0 .835.336 1.524 1.012 2.066.588.501 1.656 1.044 3.206 1.629 1.896.73 3.288 1.585 4.184 2.565.892.976 1.338 2.199 1.338 3.657zm11.671-6.76h-3.89v7.386c0 1.879.685 2.818 2.06 2.818.63 0 1.154-.053 1.568-.157l.097 2.566c-.695.25-1.61.374-2.745.374-1.394 0-2.484-.407-3.27-1.22-.784-.815-1.178-2.182-1.178-4.102v-7.668h-2.318v-2.537h2.318V33.53l3.468-1.002v3.787h3.89v2.54z"/><path fill-rule="nonzero" d="M174.948 43.799c0 2.338-.699 4.258-2.093 5.76-1.462 1.545-3.403 2.316-5.822 2.316-2.332 0-4.188-.74-5.572-2.221-1.384-1.481-2.077-3.35-2.077-5.603 0-2.357.712-4.288 2.141-5.79 1.426-1.503 3.35-2.254 5.77-2.254 2.33 0 4.207.74 5.623 2.223 1.354 1.437 2.03 3.294 2.03 5.569zm-3.663.11c0-1.404-.313-2.607-.947-3.61-.74-1.215-1.798-1.82-3.17-1.82-1.418 0-2.496.607-3.237 1.82-.634 1.005-.947 2.227-.947 3.673 0 1.403.313 2.606.947 3.608.764 1.214 1.83 1.82 3.206 1.82 1.348 0 2.406-.618 3.17-1.852.65-1.022.978-2.238.978-3.64z"/><path d="M186.423 39.29a6.395 6.395 0 0 0-1.113-.093c-1.242 0-2.202.448-2.878 1.347-.588.793-.882 1.795-.882 3.004v7.983h-3.529l.033-10.422c0-1.754-.045-3.35-.132-4.79h3.075l.129 2.91h.097c.373-1 .96-1.805 1.765-2.409.787-.544 1.636-.815 2.552-.815.326 0 .621.022.883.062v3.223z"/><path fill-rule="nonzero" d="M202.211 43.204c0 .606-.041 1.116-.129 1.533h-10.59c.04 1.503.552 2.653 1.536 3.445.892.71 2.046 1.064 3.464 1.064 1.568 0 2.999-.24 4.285-.72l.553 2.347c-1.503.628-3.278.94-5.327.94-2.463 0-4.398-.694-5.805-2.082-1.404-1.387-2.108-3.25-2.108-5.586 0-2.295.654-4.205 1.964-5.728 1.371-1.627 3.224-2.44 5.555-2.44 2.29 0 4.024.813 5.201 2.44.933 1.292 1.401 2.89 1.401 4.787zm-3.366-.876c.023-1.002-.207-1.868-.686-2.599-.61-.94-1.55-1.41-2.813-1.41-1.154 0-2.093.459-2.81 1.379-.588.73-.937 1.607-1.045 2.628h7.354v.002z"/><g><path fill-rule="nonzero" d="M81.125 15.868c0 1.866-.584 3.27-1.753 4.214-1.081.87-2.619 1.306-4.61 1.306a22.44 22.44 0 0 1-2.54-.123V11.069a19.572 19.572 0 0 1 2.99-.216c1.897 0 3.327.395 4.291 1.185 1.08.892 1.622 2.168 1.622 3.83zm-1.83.046c0-1.21-.335-2.137-1.004-2.784-.67-.645-1.647-.969-2.935-.969-.547 0-1.012.035-1.398.108v7.751c.214.032.605.046 1.173.046 1.329 0 2.354-.354 3.077-1.06.722-.708 1.087-1.738 1.087-3.092zm11.538 1.584c0 1.15-.343 2.09-1.029 2.83-.72.759-1.672 1.138-2.861 1.138-1.147 0-2.06-.363-2.74-1.092-.68-.728-1.02-1.646-1.02-2.753 0-1.157.35-2.107 1.052-2.844.703-.737 1.647-1.106 2.837-1.106 1.146 0 2.068.363 2.765 1.09.663.707.996 1.62.996 2.737zm-1.801.054c0-.69-.156-1.281-.466-1.774-.364-.597-.883-.895-1.557-.895-.698 0-1.228.298-1.592.895-.312.493-.466 1.093-.466 1.804 0 .69.156 1.28.466 1.774.376.596.9.894 1.575.894.663 0 1.183-.303 1.558-.91.321-.503.482-1.099.482-1.788z"/><path d="M103.85 13.823l-2.445 7.473h-1.59l-1.013-3.245a23.43 23.43 0 0 1-.628-2.415h-.031a17 17 0 0 1-.628 2.415l-1.075 3.245h-1.61l-2.297-7.473h1.784l.883 3.553c.214.84.39 1.64.53 2.398h.032c.13-.624.343-1.42.645-2.383l1.108-3.567h1.415l1.062 3.491c.257.852.466 1.671.626 2.46h.048c.118-.768.295-1.588.53-2.46l.948-3.49h1.705v-.002zm9 7.473h-1.736v-4.28c0-1.32-.523-1.979-1.574-1.979-.515 0-.93.18-1.254.544a1.88 1.88 0 0 0-.482 1.281v4.433h-1.736v-5.337c0-.656-.022-1.368-.063-2.138h1.526l.08 1.168h.049a2.45 2.45 0 0 1 .9-.902c.47-.279.997-.42 1.574-.42.729 0 1.335.225 1.817.677.6.553.9 1.38.9 2.476v4.477zm4.79 0h-1.736V10.394h1.735z"/><path fill-rule="nonzero" d="M127.862 17.498c0 1.15-.343 2.09-1.029 2.83-.72.759-1.673 1.138-2.861 1.138-1.149 0-2.062-.363-2.74-1.092-.68-.728-1.02-1.646-1.02-2.753 0-1.157.35-2.107 1.052-2.844.703-.737 1.647-1.106 2.835-1.106 1.148 0 2.068.363 2.767 1.09.663.707.996 1.62.996 2.737zm-1.803.054c0-.69-.156-1.281-.465-1.774-.363-.597-.883-.895-1.556-.895-.7 0-1.23.298-1.592.895-.312.493-.466 1.093-.466 1.804 0 .69.156 1.28.466 1.774.376.596.9.894 1.575.894.663 0 1.182-.303 1.556-.91.323-.503.482-1.099.482-1.788zm10.206 3.744h-1.559l-.129-.86h-.048c-.533.686-1.294 1.03-2.281 1.03-.738 0-1.334-.227-1.783-.677-.408-.41-.612-.918-.612-1.522 0-.913.398-1.61 1.198-2.091.799-.482 1.922-.718 3.369-.707v-.14c0-.984-.54-1.476-1.622-1.476-.77 0-1.45.186-2.037.554l-.353-1.091c.726-.43 1.623-.645 2.68-.645 2.04 0 3.065 1.03 3.065 3.091v2.752c0 .747.038 1.341.112 1.782zm-1.802-2.568v-1.153c-1.916-.031-2.873.471-2.873 1.506 0 .39.11.682.333.877.224.195.508.292.848.292.381 0 .737-.116 1.062-.346.327-.231.527-.524.602-.884a1.37 1.37 0 0 0 .028-.292zm11.669 2.568h-1.54l-.082-1.2h-.048c-.492.913-1.33 1.37-2.509 1.37-.94 0-1.724-.354-2.346-1.06-.621-.708-.93-1.626-.93-2.753 0-1.21.335-2.19 1.011-2.938.655-.697 1.457-1.046 2.411-1.046 1.049 0 1.783.338 2.2 1.015h.034v-4.29h1.738v8.889c0 .727.02 1.398.061 2.013zm-1.8-3.151v-1.247c0-.215-.016-.39-.047-.523a1.879 1.879 0 0 0-.628-1.006 1.753 1.753 0 0 0-1.162-.408c-.648 0-1.155.246-1.527.739-.37.493-.557 1.122-.557 1.891 0 .739.177 1.338.533 1.8.376.491.883.737 1.518.737.57 0 1.026-.205 1.372-.615.335-.38.499-.836.499-1.368zm16.65-.647c0 1.15-.343 2.09-1.029 2.83-.719.759-1.67 1.138-2.86 1.138-1.146 0-2.059-.363-2.741-1.092-.68-.728-1.02-1.646-1.02-2.753 0-1.157.35-2.107 1.053-2.844.702-.737 1.647-1.106 2.838-1.106 1.145 0 2.068.363 2.764 1.09.662.707.995 1.62.995 2.737zm-1.799.054c0-.69-.156-1.281-.466-1.774-.366-.597-.883-.895-1.559-.895-.696 0-1.226.298-1.592.895-.311.493-.465 1.093-.465 1.804 0 .69.155 1.28.465 1.774.376.596.9.894 1.576.894.663 0 1.184-.303 1.559-.91.32-.503.482-1.099.482-1.788z"/><path d="M170.319 21.296h-1.735v-4.28c0-1.32-.524-1.979-1.576-1.979-.515 0-.93.18-1.252.544a1.872 1.872 0 0 0-.482 1.281v4.433h-1.738v-5.337c0-.656-.02-1.368-.062-2.138H165l.08 1.168h.049a2.47 2.47 0 0 1 .9-.902 3.04 3.04 0 0 1 1.575-.42c.727 0 1.334.225 1.816.677.601.553.9 1.38.9 2.476v4.477zm11.685-6.229h-1.912v3.63c0 .923.34 1.385 1.013 1.385.311 0 .57-.026.774-.078l.044 1.26c-.343.124-.793.186-1.348.186-.686 0-1.22-.2-1.606-.6-.388-.399-.58-1.071-.58-2.014v-3.769h-1.141v-1.244h1.141v-1.37l1.702-.491v1.86h1.912v1.245h.001zm9.193 6.229h-1.738v-4.249c0-1.34-.524-2.01-1.573-2.01-.805 0-1.355.389-1.657 1.165a2.003 2.003 0 0 0-.08.598v4.495h-1.735V10.394h1.734v4.504h.033c.547-.82 1.33-1.229 2.347-1.229.719 0 1.313.225 1.786.677.588.563.883 1.4.883 2.506v4.444z"/><path fill-rule="nonzero" d="M200.679 17.206c0 .298-.023.549-.065.753h-5.207c.023.739.271 1.302.754 1.692.44.348 1.009.523 1.705.523.77 0 1.472-.118 2.105-.354l.272 1.154c-.74.308-1.612.462-2.621.462-1.21 0-2.162-.341-2.851-1.023-.693-.682-1.036-1.596-1.036-2.744 0-1.127.32-2.066.964-2.814.673-.8 1.583-1.199 2.73-1.199 1.124 0 1.977.4 2.554 1.199.466.634.696 1.419.696 2.351zm-1.657-.43c.013-.493-.101-.918-.336-1.276-.302-.461-.76-.693-1.382-.693-.567 0-1.029.225-1.382.677-.288.36-.459.79-.515 1.292h3.615z"/></g></g></symbol><symbol viewBox="0 0 18 20" id="apple"><path fill-rule="evenodd" d="M1.377 7.352C2.302 5.806 3.98 4.83 5.755 4.804h.054c.763 0 1.485.275 2.121.517.476.182.887.339 1.204.339.281 0 .69-.155 1.163-.335.685-.26 1.538-.583 2.429-.583.114 0 .227.006.337.016.759.032 2.642.292 3.87 2.02a.159.159 0 0 1 .027.126.164.164 0 0 1-.075.105l-.017.01c-.357.212-2.137 1.384-2.114 3.596.025 2.723 2.367 3.722 2.634 3.827l.013.005a.16.16 0 0 1 .09.2l-.006.019a10.846 10.846 0 0 1-1.432 2.82c-.821 1.153-1.752 2.46-3.269 2.488-.708.013-1.188-.188-1.654-.381-.472-.197-.96-.4-1.727-.4-.804 0-1.317.21-1.814.413-.441.181-.898.368-1.531.393a2.03 2.03 0 0 1-.077.001c-1.346 0-2.329-1.212-3.3-2.561-1.944-2.7-3.062-7.153-1.304-10.087zM13.065 0a.17.17 0 0 1 .176.146c.125 1.093-.287 2.313-1.102 3.264-.775.9-1.909 1.46-2.96 1.46a3.18 3.18 0 0 1-.22-.01.168.168 0 0 1-.156-.141c-.169-1.226.471-2.443 1.126-3.172C10.7.678 11.99.042 13.065 0z" opacity=".7"/></symbol><symbol viewBox="0 0 477.175 477.175" id="arrow"><path d="M360.731 229.075l-225.1-225.1c-5.3-5.3-13.8-5.3-19.1 0s-5.3 13.8 0 19.1l215.5 215.5-215.5 215.5c-5.3 5.3-5.3 13.8 0 19.1 2.6 2.6 6.1 4 9.5 4 3.4 0 6.9-1.3 9.5-4l225.1-225.1c5.3-5.2 5.3-13.8.1-19z"/></symbol><symbol viewBox="0 0 224 66" id="google-play"><g fill-rule="evenodd"><path d="M215.45 65.652H8.627C4.08 65.652.354 62 .354 57.541V8.87C.354 4.41 4.08.759 8.627.759H215.45c4.548 0 8.273 3.652 8.273 8.112v48.67c0 4.459-3.725 8.111-8.273 8.111z"/><path fill-rule="nonzero" d="M215.45 2.059c3.83 0 6.947 3.056 6.947 6.812v48.67c0 3.755-3.117 6.811-6.947 6.811H8.627c-3.83 0-6.947-3.056-6.947-6.811V8.87c0-3.756 3.117-6.812 6.947-6.812H215.45zm0-1.3H8.627C4.08.759.354 4.411.354 8.871v48.67c0 4.459 3.725 8.111 8.273 8.111H215.45c4.548 0 8.273-3.652 8.273-8.111V8.87c0-4.46-3.725-8.112-8.273-8.112z"/><path d="M78.81 17.378c0 1.354-.413 2.44-1.228 3.248-.937.96-2.157 1.442-3.653 1.442-1.429 0-2.65-.49-3.65-1.458-1.003-.981-1.504-2.186-1.504-3.628 0-1.442.5-2.646 1.504-3.62 1-.975 2.221-1.466 3.65-1.466.712 0 1.39.144 2.038.412.645.27 1.17.635 1.55 1.085l-.864.856c-.664-.769-1.568-1.148-2.724-1.148a3.831 3.831 0 0 0-2.713 1.077c-.76.722-1.14 1.657-1.14 2.804 0 1.148.38 2.091 1.14 2.813.767.712 1.671 1.077 2.713 1.077 1.107 0 2.038-.365 2.772-1.085.484-.477.759-1.134.831-1.973H73.93v-1.172h4.807c.058.253.074.498.074.736zm7.626-4.064H81.92v3.082h4.07v1.172h-4.07v3.083h4.515v1.194h-5.793V12.12h5.793zm5.381 8.531H90.54v-8.531h-2.77v-1.195h6.82v1.195h-2.772v8.531zm7.707 0V12.12h1.276v9.726zm6.932 0h-1.268v-8.531h-2.78v-1.195h6.828v1.195h-2.78z"/><path fill-rule="nonzero" d="M122.146 20.594c-.978.984-2.19 1.474-3.636 1.474-1.454 0-2.666-.49-3.644-1.474-.977-.981-1.463-2.186-1.463-3.612 0-1.425.486-2.63 1.463-3.611.978-.984 2.19-1.475 3.644-1.475 1.437 0 2.65.491 3.628 1.483.984.99 1.47 2.186 1.47 3.603 0 1.426-.486 2.63-1.462 3.612zm-6.335-.815c.736.728 1.632 1.093 2.699 1.093 1.059 0 1.963-.365 2.69-1.093.735-.728 1.107-1.663 1.107-2.797 0-1.133-.372-2.068-1.106-2.796-.728-.728-1.632-1.093-2.691-1.093-1.067 0-1.963.365-2.7 1.093-.733.728-1.106 1.663-1.106 2.796 0 1.134.373 2.069 1.107 2.797z"/><path d="M125.401 21.845V12.12h1.551l4.823 7.564h.056l-.056-1.87V12.12h1.277v9.726h-1.332l-5.05-7.937h-.057l.056 1.878v6.06h-1.268z"/><path fill-rule="nonzero" d="M113.09 36.049c-3.887 0-7.062 2.9-7.062 6.9 0 3.97 3.175 6.9 7.061 6.9 3.895 0 7.07-2.93 7.07-6.9 0-4-3.175-6.9-7.07-6.9zm0 11.082c-2.133 0-3.968-1.725-3.968-4.181 0-2.489 1.835-4.184 3.967-4.184s3.975 1.695 3.975 4.184c0 2.456-1.843 4.181-3.975 4.181zM97.682 36.05c-3.895 0-7.061 2.9-7.061 6.9 0 3.97 3.166 6.9 7.06 6.9 3.893 0 7.062-2.93 7.062-6.9 0-4-3.169-6.9-7.061-6.9zm0 11.082c-2.135 0-3.975-1.725-3.975-4.181 0-2.489 1.84-4.184 3.975-4.184 2.132 0 3.967 1.695 3.967 4.184 0 2.456-1.835 4.181-3.967 4.181zM79.35 38.164v2.932h7.142c-.21 1.639-.768 2.843-1.624 3.683-1.042 1.014-2.666 2.14-5.518 2.14-4.395 0-7.836-3.479-7.836-7.788 0-4.31 3.441-7.787 7.836-7.787 2.377 0 4.106.91 5.382 2.09l2.107-2.066c-1.785-1.67-4.159-2.954-7.489-2.954-6.027 0-11.092 4.808-11.092 10.717 0 5.91 5.065 10.718 11.092 10.718 3.258 0 5.704-1.047 7.628-3.01 1.97-1.932 2.585-4.65 2.585-6.844 0-.681-.058-1.308-.161-1.831H79.35zm74.965 2.273c-.581-1.543-2.374-4.388-6.027-4.388-3.62 0-6.633 2.796-6.633 6.9 0 3.866 2.983 6.9 6.98 6.9 3.233 0 5.099-1.933 5.866-3.058l-2.399-1.568c-.8 1.148-1.89 1.908-3.466 1.908-1.566 0-2.689-.703-3.409-2.09l9.413-3.819-.325-.785zm-9.597 2.298c-.08-2.66 2.108-4.024 3.676-4.024 1.228 0 2.27.603 2.618 1.465l-6.294 2.559zm-7.65 6.694h3.094v-20.28h-3.094v20.28zm-5.067-11.843h-.103c-.695-.807-2.021-1.537-3.7-1.537-3.525 0-6.747 3.034-6.747 6.923 0 3.867 3.222 6.877 6.746 6.877 1.68 0 3.006-.736 3.7-1.568h.104v.99c0 2.638-1.437 4.056-3.756 4.056-1.89 0-3.063-1.339-3.547-2.464l-2.69 1.1c.775 1.83 2.829 4.081 6.237 4.081 3.628 0 6.689-2.093 6.689-7.185V36.47H132v1.117zm-3.539 9.545c-2.132 0-3.917-1.75-3.917-4.159 0-2.431 1.785-4.206 3.917-4.206 2.102 0 3.758 1.775 3.758 4.206 0 2.41-1.656 4.16-3.758 4.16zm40.339-17.981h-7.4v20.279h3.086v-7.684h4.314c3.427 0 6.788-2.431 6.788-6.299 0-3.865-3.37-6.296-6.788-6.296zm.08 9.774h-4.394v-6.953h4.395a3.553 3.553 0 0 1 3.619 3.475 3.574 3.574 0 0 1-3.62 3.478zm19.076-2.914c-2.23 0-4.548.966-5.502 3.105l2.739 1.125c.589-1.125 1.673-1.49 2.819-1.49 1.6 0 3.224.943 3.249 2.608v.213c-.559-.317-1.754-.785-3.225-.785-2.949 0-5.954 1.592-5.954 4.563 0 2.717 2.416 4.467 5.131 4.467 2.077 0 3.223-.918 3.942-1.987h.106v1.567h2.98v-7.779c0-3.595-2.738-5.607-6.285-5.607zm-.373 11.113c-1.009 0-2.415-.49-2.415-1.717 0-1.57 1.754-2.172 3.272-2.172 1.359 0 1.996.294 2.82.681-.241 1.878-1.89 3.208-3.677 3.208zM205.1 36.454l-3.547 8.791h-.105l-3.667-8.79h-3.328l5.51 12.284-3.144 6.837h3.224l8.49-19.122H205.1zM177.285 49.43h3.094V29.15h-3.094v20.28z"/><path d="M17.62 12.99c-.486.498-.768 1.275-.768 2.281v35.878c0 1.006.282 1.782.768 2.281l.12.11 20.504-20.097v-.474L17.74 12.872l-.12.118zM45.071 40.146l-6.827-6.702v-.475l6.835-6.702.153.087 8.095 4.516c2.31 1.282 2.31 3.39 0 4.68l-8.095 4.51-.16.086z"/><path d="M45.233 40.058l-6.989-6.852L17.62 53.43c.767.791 2.018.886 3.44.096l24.172-13.468M45.233 26.354L21.06 12.886c-1.423-.782-2.674-.687-3.441.104l20.625 20.216 6.989-6.852z"/></g></symbol><symbol viewBox="0 0 14 14" id="header-phone"><path fill-rule="evenodd" d="M13.317 9.695a1.197 1.197 0 0 1 0 1.69l-.28.282-3.37-3.38.28-.282a1.218 1.218 0 0 1 1.686 0l1.684 1.69zm-4.253-.314l3.27 3.266a4.149 4.149 0 0 1-5.663-.2L1.545 7.323c-1.552-1.55-1.607-4.018-.2-5.656l3.269 3.266a.868.868 0 0 0 .06 1.15l3.238 3.239a.87.87 0 0 0 1.152.059zm-3.08-7.02a1.197 1.197 0 0 1 0 1.69l-.28.282-3.37-3.38.28-.281a1.218 1.218 0 0 1 1.685 0l1.685 1.69z"/></symbol><symbol viewBox="0 0 20 20" id="instagram"><path d="M10 6.14c-2.262 0-4.102 1.748-4.102 3.897s1.84 3.897 4.102 3.897c2.262 0 4.102-1.748 4.102-3.897S12.262 6.141 10 6.141zm0 0c-2.262 0-4.102 1.748-4.102 3.897s1.84 3.897 4.102 3.897c2.262 0 4.102-1.748 4.102-3.897S12.262 6.141 10 6.141zM17.07.5H2.93C1.312.5 0 1.747 0 3.283v13.434C0 18.253 1.313 19.5 2.93 19.5h14.14c1.617 0 2.93-1.247 2.93-2.783V3.283C20 1.747 18.687.5 17.07.5zM10 15.047c-2.906 0-5.273-2.249-5.273-5.01 0-2.76 2.367-5.01 5.273-5.01 2.906 0 5.273 2.25 5.273 5.01 0 2.761-2.367 5.01-5.273 5.01zm6.445-10.02c-.644 0-1.172-.5-1.172-1.113 0-.612.528-1.113 1.172-1.113.645 0 1.172.5 1.172 1.113 0 .612-.527 1.113-1.172 1.113zM10 6.141c-2.262 0-4.102 1.747-4.102 3.896s1.84 3.897 4.102 3.897c2.262 0 4.102-1.748 4.102-3.897S12.262 6.141 10 6.141zm0 0c-2.262 0-4.102 1.747-4.102 3.896s1.84 3.897 4.102 3.897c2.262 0 4.102-1.748 4.102-3.897S12.262 6.141 10 6.141zm0 0c-2.262 0-4.102 1.747-4.102 3.896s1.84 3.897 4.102 3.897c2.262 0 4.102-1.748 4.102-3.897S12.262 6.141 10 6.141z" opacity=".7"/></symbol><symbol viewBox="0 0 22 17" id="message"><path fill-rule="evenodd" d="M15 8.6L22 4v8.918A2.602 2.602 0 0 1 21.766 14L15 8.6zm-4.017.4L0 2.164A2.94 2.94 0 0 1 2.823 0h16.35A2.94 2.94 0 0 1 22 2.18L10.983 9zM0 4l7.227 4.489L.18 14.466C.163 14.426 0 13.249 0 12.92V4zm13.127 6.01L21 16.22a2.8 2.8 0 0 1-1.935.78H2.957A2.811 2.811 0 0 1 1 16.2L8.86 10l1.475.952a1.224 1.224 0 0 0 1.322 0l1.47-.943z" opacity=".5"/></symbol><symbol viewBox="0 0 20 20" id="phone"><path fill-rule="evenodd" d="M19.476 14.043c.697.698.7 1.833 0 2.535l-.421.422L14 11.93l.421-.422c.676-.678 1.854-.677 2.528 0l2.527 2.535zm-6.38-.472l4.904 4.9a6.223 6.223 0 0 1-8.493-.301l-7.689-7.685C-.51 8.159-.592 4.457 1.517 2L6.42 6.9c-.4.514-.385 1.252.089 1.725l4.858 4.857c.473.474 1.21.49 1.728.09zM8.476 3.043c.697.698.7 1.833 0 2.534L8.055 6 3 .93l.421-.422c.676-.678 1.854-.677 2.528 0l2.527 2.535z" opacity=".5"/></symbol><symbol viewBox="0 0 16 22" id="point"><path d="M8 .5C3.864.5.5 3.912.5 8.105c0 5.205 6.712 12.845 6.998 13.168a.67.67 0 0 0 1.004 0C8.788 20.95 15.5 13.31 15.5 8.105 15.5 3.912 12.135.5 8 .5zm0 11.432c-2.08 0-3.773-1.717-3.773-3.827S5.919 4.28 8 4.28c2.08 0 3.773 1.716 3.773 3.826 0 2.11-1.692 3.827-3.773 3.827z" opacity=".5"/></symbol><symbol viewBox="0 0 176 176" id="trainer-ball"><path fill-rule="evenodd" d="M95.94 14.42c-1.684 2.246-4.77 5.51-8.862 9.047-11.993-8.555-22.782-14.345-29.752-17.71A88.311 88.311 0 0 1 97.306.42l.035.64c.287 5.008.61 10.685-1.4 13.36zm43.902 50.202c12.455-1.427 25.962 14.67 36.158 27.33-.889 22.807-10.286 43.396-25.083 58.626-1.425-24.111-7.249-57.393-22.186-83.736 3.125-1.008 6.778-1.726 11.11-2.22zM52.22 42.397c-3.535.742-7.2 1.43-10.746 2.094-10.96 2.055-22.119 4.164-32.423 8.309 7.928-17.942 21.553-32.75 38.581-42.044 2.723 1.127 16.412 7.05 32.825 18.464-7.867 5.633-17.734 10.97-28.237 13.177zm60.42 1.443c8.928-5.773 16.441-9.712 21.159-11.162 7.192-2.208 14.248-3.538 20.577-4.322C165.972 41.68 173.755 58.576 176 77.244c-10.474-12.314-22.678-23.5-36.402-21.902-5.825.677-10.691 1.816-14.825 3.422-2.838-4.264-5.933-8.293-9.345-11.978-.924-1-1.855-1.981-2.788-2.946zm-11.802 46.343c-1.442 4.88-3.193 12.41-5.222 21.132-4.223 18.158-11.328 48.689-18.876 63.707-20.731-2.862-39.147-12.952-52.603-27.665 4.031-35.037 48.363-75.476 80.726-97.49 1.326 1.3 2.646 2.623 3.952 3.993 2.822 2.961 5.427 6.22 7.848 9.694-8.067 5.692-12.23 14.463-15.825 26.629zM63.274 70.696c-18.92 17.517-41.028 42.51-47.473 68.148C5.853 124.51 0 107.09 0 88.288a88.905 88.905 0 0 1 3.37-24.23c11.184-6.27 24.483-8.773 38.338-11.358 3.596-.67 7.315-1.365 10.947-2.124 12.97-2.71 24.886-9.48 33.987-16.354a189.2 189.2 0 0 1 10.912 8.984c-10.957 7.57-22.936 16.987-34.28 27.49zm40.984-33.54a197.759 197.759 0 0 0-11.732-9.327c3.954-3.347 6.993-6.431 8.789-8.68 3.78-4.737 3.63-11.256 3.285-17.193 15.576 2.944 29.686 9.698 41.229 19.175-4.996.806-10.27 1.911-15.648 3.429-5.988 1.688-15.218 6.147-25.923 12.596zm4.203 54.328c3.093-10.74 6.2-17.661 11.971-22.062 14.883 26.543 20.791 62.3 21.374 87.578-14.745 11.89-33.325 19-53.536 19-.933 0-1.859-.042-2.784-.072 6.52-14.694 12.103-37.736 17.937-63.486 1.976-8.72 3.684-16.253 5.038-20.958z" opacity=".1"/></symbol><symbol viewBox="0 0 24 12" id="vk"><path fill-rule="evenodd" d="M20.655 7.63c.797.687 1.637 1.333 2.35 2.089.316.336.615.683.843 1.073.324.554.03 1.164-.532 1.197l-3.496-.002c-.902.066-1.621-.254-2.226-.8-.484-.435-.932-.898-1.398-1.349a3.215 3.215 0 0 0-.63-.494c-.476-.274-.89-.19-1.163.25-.278.447-.341.943-.369 1.441-.037.728-.286.919-1.113.952-1.767.074-3.445-.162-5.003-.95-1.374-.695-2.44-1.675-3.366-2.785C2.746 6.091 1.364 3.716.122 1.275-.159.725.045.429.732.419 1.873.399 3.014.4 4.156.417c.464.006.77.241.95.628a18.171 18.171 0 0 0 2.32 3.799c.252.315.51.63.876.85.405.246.714.165.905-.234a2.38 2.38 0 0 0 .201-.797c.09-.932.102-1.863-.056-2.792C9.255 1.29 8.885.916 8.23.806 7.896.75 7.946.64 8.107.472 8.388.18 8.653 0 9.18 0h3.951c.622.108.76.355.845.908l.004 3.878c-.007.215.12.85.557.992.35.1.58-.146.79-.342.946-.887 1.62-1.936 2.224-3.021a18.6 18.6 0 0 0 .721-1.469c.165-.368.425-.548.893-.54l3.803.003c.113 0 .227.001.336.018.641.096.817.34.619.893-.312.867-.919 1.59-1.512 2.316-.634.776-1.312 1.524-1.941 2.304-.578.713-.532 1.072.185 1.69z" opacity=".7"/></symbol></svg>