<svg xmlns="http://www.w3.org/2000/svg" width="18" height="20" viewBox="0 0 18 20">
    <path fill="#FFF" fill-rule="evenodd" d="M11.125 20c-.68 0-1.274-.583-1.274-1.252v-2.924H8.149v2.924c0 .669-.593 1.252-1.274 1.252-.68 0-1.274-.583-1.274-1.252v-2.924H4.75c-.51 0-.85-.334-.85-.835v-8.35h10.2v8.35c0 .501-.34.835-.85.835h-.85v2.924c0 .669-.594 1.252-1.275 1.252zm5.1-5.011c-.68 0-1.273-.584-1.273-1.252V7.889c0-.665.593-1.25 1.274-1.25.68 0 1.274.585 1.274 1.25v5.848c0 .668-.593 1.252-1.274 1.252zm-14.45 0c-.682 0-1.275-.584-1.275-1.252V7.889c0-.665.593-1.25 1.274-1.25.68 0 1.274.585 1.274 1.25v5.848c0 .668-.593 1.252-1.274 1.252zM13.08.126c.17.167.17.416 0 .583l-1.104 1.084c.355.234.678.52.958.846.672.782 1.1 1.8 1.16 2.902l.002.034c.003.075.005.15.005.227H3.899c0-.076.002-.152.005-.227l.003-.034a4.86 4.86 0 0 1 1.158-2.902c.28-.327.603-.612.959-.846L4.92.71a.396.396 0 0 1 0-.583.412.412 0 0 1 .594 0l1.14 1.118.053.051c.677-.333 1.436-.499 2.28-.5h.025c.845.001 1.604.167 2.28.5l.053-.051L12.486.126a.412.412 0 0 1 .594 0zM6.873 4.342c.352 0 .638-.28.638-.626a.632.632 0 0 0-.638-.626.632.632 0 0 0-.637.626c0 .346.285.626.637.626zm4.254 0c.352 0 .637-.28.637-.626a.632.632 0 0 0-.637-.626.632.632 0 0 0-.638.626c0 .346.286.626.638.626z" opacity=".7"/>
</svg>
