<svg xmlns="http://www.w3.org/2000/svg" width="223" height="65" viewBox="0 0 223 65">
    <g fill="none" fill-rule="evenodd">
        <path fill="#A6A6A6" d="M215.066 65H7.812C3.505 65 0 61.542 0 57.309V7.679C0 3.446 3.505 0 7.812 0h207.254C219.371 0 223 3.445 223 7.68v49.629c0 4.233-3.63 7.691-7.934 7.691z"/>
        <path fill="#000" d="M221.384 57.217c0 3.424-2.83 6.198-6.328 6.198H7.953c-3.498 0-6.337-2.774-6.337-6.198V7.79c0-3.422 2.839-6.206 6.337-6.206h207.1c3.502 0 6.33 2.784 6.33 6.206l.001 49.426z"/>
        <path fill="#FFF" d="M50.301 32.205c.053 6.36 5.46 8.463 5.527 8.486-.033.148-.847 3.034-2.875 5.964-1.694 2.58-3.468 5.102-6.286 5.148-2.738.065-3.659-1.641-6.798-1.641-3.17 0-4.15 1.595-6.776 1.706-2.684.1-4.735-2.755-6.49-5.311-3.508-5.221-6.239-14.712-2.577-21.17 1.774-3.168 5.01-5.208 8.467-5.262 2.688-.056 5.181 1.848 6.833 1.848 1.619 0 4.702-2.278 7.88-1.937 1.33.04 5.115.535 7.557 4.162-.197.12-4.509 2.701-4.462 8.007zM45.13 16.601c-1.474 1.772-3.831 3.127-6.128 2.952-.3-2.39.863-4.932 2.166-6.483 1.472-1.76 4.028-3.108 6.072-3.2.269 2.484-.698 4.932-2.11 6.731z"/>
        <g fill="#FFF">
            <path fill-rule="nonzero" d="M88.768 51.53h-3.76l-2.06-6.196h-7.16l-1.963 6.197h-3.66l7.093-21.098h4.381l7.129 21.098zm-6.441-8.796l-1.863-5.51c-.197-.562-.567-1.888-1.111-3.974h-.067c-.216.897-.566 2.223-1.046 3.974l-1.83 5.51h5.917zM107.01 43.737c0 2.587-.73 4.633-2.19 6.134-1.309 1.336-2.933 2.004-4.872 2.004-2.093 0-3.596-.72-4.512-2.16h-.066v8.015h-3.53V41.326c0-1.627-.045-3.296-.131-5.008h3.104l.197 2.41h.067c1.177-1.816 2.963-2.723 5.361-2.723 1.875 0 3.44.709 4.691 2.128 1.255 1.42 1.881 3.288 1.881 5.604zm-3.596.124c0-1.481-.348-2.702-1.047-3.662-.763-1.002-1.788-1.503-3.073-1.503-.871 0-1.662.279-2.37.829a3.824 3.824 0 0 0-1.389 2.176c-.11.419-.164.761-.164 1.031v2.537c0 1.106.355 2.04 1.063 2.802.709.763 1.63 1.144 2.762 1.144 1.33 0 2.365-.492 3.105-1.472.742-.981 1.113-2.275 1.113-3.882zM125.286 43.737c0 2.587-.73 4.633-2.193 6.134-1.306 1.336-2.93 2.004-4.87 2.004-2.092 0-3.596-.72-4.51-2.16h-.066v8.015h-3.53V41.326c0-1.627-.045-3.296-.131-5.008h3.104l.197 2.41h.067c1.175-1.816 2.962-2.723 5.361-2.723 1.873 0 3.438.709 4.693 2.128 1.25 1.42 1.878 3.288 1.878 5.604zm-3.597.124c0-1.481-.35-2.702-1.048-3.662-.763-1.002-1.785-1.503-3.072-1.503-.872 0-1.662.279-2.37.829a3.822 3.822 0 0 0-1.388 2.176c-.108.419-.164.761-.164 1.031v2.537c0 1.106.354 2.04 1.06 2.802.708.761 1.629 1.144 2.765 1.144 1.33 0 2.364-.492 3.105-1.472.741-.981 1.112-2.275 1.112-3.882z"/>
            <path d="M145.719 45.614c0 1.795-.65 3.255-1.957 4.382-1.436 1.232-3.435 1.847-6.003 1.847-2.371 0-4.272-.438-5.71-1.314l.817-2.817c1.55.897 3.25 1.347 5.103 1.347 1.33 0 2.365-.288 3.108-.862.74-.574 1.11-1.345 1.11-2.305 0-.857-.305-1.578-.916-2.163-.607-.585-1.623-1.129-3.04-1.631-3.858-1.378-5.785-3.396-5.785-6.05 0-1.734.675-3.156 2.028-4.263 1.348-1.108 3.146-1.661 5.395-1.661 2.005 0 3.67.334 5 1.001l-.882 2.756c-1.242-.647-2.646-.97-4.218-.97-1.242 0-2.212.293-2.907.876-.588.522-.883 1.158-.883 1.91 0 .835.336 1.524 1.012 2.066.588.501 1.656 1.044 3.206 1.629 1.896.73 3.288 1.585 4.184 2.565.892.976 1.338 2.199 1.338 3.657zM157.39 38.854h-3.89v7.386c0 1.879.685 2.818 2.06 2.818.63 0 1.154-.053 1.568-.157l.097 2.566c-.695.25-1.61.374-2.745.374-1.394 0-2.484-.407-3.27-1.22-.784-.815-1.178-2.182-1.178-4.102v-7.668h-2.318v-2.537h2.318V33.53l3.468-1.002v3.787h3.89v2.54z"/>
            <path fill-rule="nonzero" d="M174.948 43.799c0 2.338-.699 4.258-2.093 5.76-1.462 1.545-3.403 2.316-5.822 2.316-2.332 0-4.188-.74-5.572-2.221-1.384-1.481-2.077-3.35-2.077-5.603 0-2.357.712-4.288 2.141-5.79 1.426-1.503 3.35-2.254 5.77-2.254 2.33 0 4.207.74 5.623 2.223 1.354 1.437 2.03 3.294 2.03 5.569zm-3.663.11c0-1.404-.313-2.607-.947-3.61-.74-1.215-1.798-1.82-3.17-1.82-1.418 0-2.496.607-3.237 1.82-.634 1.005-.947 2.227-.947 3.673 0 1.403.313 2.606.947 3.608.764 1.214 1.83 1.82 3.206 1.82 1.348 0 2.406-.618 3.17-1.852.65-1.022.978-2.238.978-3.64z"/>
            <path d="M186.423 39.29a6.395 6.395 0 0 0-1.113-.093c-1.242 0-2.202.448-2.878 1.347-.588.793-.882 1.795-.882 3.004v7.983h-3.529l.033-10.422c0-1.754-.045-3.35-.132-4.79h3.075l.129 2.91h.097c.373-1 .96-1.805 1.765-2.409.787-.544 1.636-.815 2.552-.815.326 0 .621.022.883.062v3.223z"/>
            <path fill-rule="nonzero" d="M202.211 43.204c0 .606-.041 1.116-.129 1.533h-10.59c.04 1.503.552 2.653 1.536 3.445.892.71 2.046 1.064 3.464 1.064 1.568 0 2.999-.24 4.285-.72l.553 2.347c-1.503.628-3.278.94-5.327.94-2.463 0-4.398-.694-5.805-2.082-1.404-1.387-2.108-3.25-2.108-5.586 0-2.295.654-4.205 1.964-5.728 1.371-1.627 3.224-2.44 5.555-2.44 2.29 0 4.024.813 5.201 2.44.933 1.292 1.401 2.89 1.401 4.787zm-3.366-.876c.023-1.002-.207-1.868-.686-2.599-.61-.94-1.55-1.41-2.813-1.41-1.154 0-2.093.459-2.81 1.379-.588.73-.937 1.607-1.045 2.628h7.354v.002z"/>
        </g>
        <g fill="#FFF">
            <path fill-rule="nonzero" d="M81.125 15.868c0 1.866-.584 3.27-1.753 4.214-1.081.87-2.619 1.306-4.61 1.306-.988 0-1.833-.041-2.54-.123V11.069a19.572 19.572 0 0 1 2.99-.216c1.897 0 3.327.395 4.291 1.185 1.08.892 1.622 2.168 1.622 3.83zm-1.83.046c0-1.21-.335-2.137-1.004-2.784-.67-.645-1.647-.969-2.935-.969-.547 0-1.012.035-1.398.108v7.751c.214.032.605.046 1.173.046 1.329 0 2.354-.354 3.077-1.06.722-.708 1.087-1.738 1.087-3.092zM90.833 17.498c0 1.15-.343 2.09-1.029 2.83-.72.759-1.672 1.138-2.861 1.138-1.147 0-2.06-.363-2.74-1.092-.68-.728-1.02-1.646-1.02-2.753 0-1.157.35-2.107 1.052-2.844.703-.737 1.647-1.106 2.837-1.106 1.146 0 2.068.363 2.765 1.09.663.707.996 1.62.996 2.737zm-1.801.054c0-.69-.156-1.281-.466-1.774-.364-.597-.883-.895-1.557-.895-.698 0-1.228.298-1.592.895-.312.493-.466 1.093-.466 1.804 0 .69.156 1.28.466 1.774.376.596.9.894 1.575.894.663 0 1.183-.303 1.558-.91.321-.503.482-1.099.482-1.788z"/>
            <path d="M103.85 13.823l-2.445 7.473h-1.59l-1.013-3.245a23.43 23.43 0 0 1-.628-2.415h-.031c-.15.822-.36 1.625-.628 2.415l-1.075 3.245h-1.61l-2.297-7.473h1.784l.883 3.553c.214.84.39 1.64.53 2.398h.032c.13-.624.343-1.42.645-2.383l1.108-3.567h1.415l1.062 3.491c.257.852.466 1.671.626 2.46h.048c.118-.768.295-1.588.53-2.46l.948-3.49h1.705v-.002zM112.85 21.296h-1.736v-4.28c0-1.32-.523-1.979-1.574-1.979-.515 0-.93.18-1.254.544a1.88 1.88 0 0 0-.482 1.281v4.433h-1.736v-5.337c0-.656-.022-1.368-.063-2.138h1.526l.08 1.168h.049a2.45 2.45 0 0 1 .9-.902c.47-.279.997-.42 1.574-.42.729 0 1.335.225 1.817.677.6.553.9 1.38.9 2.476v4.477zM117.64 21.296h-1.736V10.394h1.735z"/>
            <path fill-rule="nonzero" d="M127.862 17.498c0 1.15-.343 2.09-1.029 2.83-.72.759-1.673 1.138-2.861 1.138-1.149 0-2.062-.363-2.74-1.092-.68-.728-1.02-1.646-1.02-2.753 0-1.157.35-2.107 1.052-2.844.703-.737 1.647-1.106 2.835-1.106 1.148 0 2.068.363 2.767 1.09.663.707.996 1.62.996 2.737zm-1.803.054c0-.69-.156-1.281-.465-1.774-.363-.597-.883-.895-1.556-.895-.7 0-1.23.298-1.592.895-.312.493-.466 1.093-.466 1.804 0 .69.156 1.28.466 1.774.376.596.9.894 1.575.894.663 0 1.182-.303 1.556-.91.323-.503.482-1.099.482-1.788zM136.265 21.296h-1.559l-.129-.86h-.048c-.533.686-1.294 1.03-2.281 1.03-.738 0-1.334-.227-1.783-.677-.408-.41-.612-.918-.612-1.522 0-.913.398-1.61 1.198-2.091.799-.482 1.922-.718 3.369-.707v-.14c0-.984-.54-1.476-1.622-1.476-.77 0-1.45.186-2.037.554l-.353-1.091c.726-.43 1.623-.645 2.68-.645 2.04 0 3.065 1.03 3.065 3.091v2.752c0 .747.038 1.341.112 1.782zm-1.802-2.568v-1.153c-1.916-.031-2.873.471-2.873 1.506 0 .39.11.682.333.877.224.195.508.292.848.292.381 0 .737-.116 1.062-.346.327-.231.527-.524.602-.884.018-.081.028-.18.028-.292zM146.132 21.296h-1.54l-.082-1.2h-.048c-.492.913-1.33 1.37-2.509 1.37-.94 0-1.724-.354-2.346-1.06-.621-.708-.93-1.626-.93-2.753 0-1.21.335-2.19 1.011-2.938.655-.697 1.457-1.046 2.411-1.046 1.049 0 1.783.338 2.2 1.015h.034v-4.29h1.738v8.889c0 .727.02 1.398.061 2.013zm-1.8-3.151v-1.247c0-.215-.016-.39-.047-.523a1.879 1.879 0 0 0-.628-1.006 1.753 1.753 0 0 0-1.162-.408c-.648 0-1.155.246-1.527.739-.37.493-.557 1.122-.557 1.891 0 .739.177 1.338.533 1.8.376.491.883.737 1.518.737.57 0 1.026-.205 1.372-.615.335-.38.499-.836.499-1.368zM160.982 17.498c0 1.15-.343 2.09-1.029 2.83-.719.759-1.67 1.138-2.86 1.138-1.146 0-2.059-.363-2.741-1.092-.68-.728-1.02-1.646-1.02-2.753 0-1.157.35-2.107 1.053-2.844.702-.737 1.647-1.106 2.838-1.106 1.145 0 2.068.363 2.764 1.09.662.707.995 1.62.995 2.737zm-1.799.054c0-.69-.156-1.281-.466-1.774-.366-.597-.883-.895-1.559-.895-.696 0-1.226.298-1.592.895-.311.493-.465 1.093-.465 1.804 0 .69.155 1.28.465 1.774.376.596.9.894 1.576.894.663 0 1.184-.303 1.559-.91.32-.503.482-1.099.482-1.788z"/>
            <path d="M170.319 21.296h-1.735v-4.28c0-1.32-.524-1.979-1.576-1.979-.515 0-.93.18-1.252.544a1.872 1.872 0 0 0-.482 1.281v4.433h-1.738v-5.337c0-.656-.02-1.368-.062-2.138H165l.08 1.168h.049c.204-.363.505-.663.9-.902a3.04 3.04 0 0 1 1.575-.42c.727 0 1.334.225 1.816.677.601.553.9 1.38.9 2.476v4.477zM182.004 15.067h-1.912v3.63c0 .923.34 1.385 1.013 1.385.311 0 .57-.026.774-.078l.044 1.26c-.343.124-.793.186-1.348.186-.686 0-1.22-.2-1.606-.6-.388-.399-.58-1.071-.58-2.014v-3.769h-1.141v-1.244h1.141v-1.37l1.702-.491v1.86h1.912v1.245h.001zM191.197 21.296h-1.738v-4.249c0-1.34-.524-2.01-1.573-2.01-.805 0-1.355.389-1.657 1.165a2.003 2.003 0 0 0-.08.598v4.495h-1.735V10.394h1.734v4.504h.033c.547-.82 1.33-1.229 2.347-1.229.719 0 1.313.225 1.786.677.588.563.883 1.4.883 2.506v4.444z"/>
            <path fill-rule="nonzero" d="M200.679 17.206c0 .298-.023.549-.065.753h-5.207c.023.739.271 1.302.754 1.692.44.348 1.009.523 1.705.523.77 0 1.472-.118 2.105-.354l.272 1.154c-.74.308-1.612.462-2.621.462-1.21 0-2.162-.341-2.851-1.023-.693-.682-1.036-1.596-1.036-2.744 0-1.127.32-2.066.964-2.814.673-.8 1.583-1.199 2.73-1.199 1.124 0 1.977.4 2.554 1.199.466.634.696 1.419.696 2.351zm-1.657-.43c.013-.493-.101-.918-.336-1.276-.302-.461-.76-.693-1.382-.693-.567 0-1.029.225-1.382.677-.288.36-.459.79-.515 1.292h3.615z"/>
        </g>
    </g>
</svg>
