<svg xmlns="http://www.w3.org/2000/svg" width="18" height="20" viewBox="0 0 18 20">
    <path fill="#FFF" fill-rule="evenodd" d="M1.377 7.352C2.302 5.806 3.98 4.83 5.755 4.804h.054c.763 0 1.485.275 2.121.517.476.182.887.339 1.204.339.281 0 .69-.155 1.163-.335.685-.26 1.538-.583 2.429-.583.114 0 .227.006.337.016.759.032 2.642.292 3.87 2.02a.159.159 0 0 1 .027.126.164.164 0 0 1-.075.105l-.017.01c-.357.212-2.137 1.384-2.114 3.596.025 2.723 2.367 3.722 2.634 3.827l.013.005c.079.035.118.122.09.2l-.006.019a10.846 10.846 0 0 1-1.432 2.82c-.821 1.153-1.752 2.46-3.269 2.488-.708.013-1.188-.188-1.654-.381-.472-.197-.96-.4-1.727-.4-.804 0-1.317.21-1.814.413-.441.181-.898.368-1.531.393a2.03 2.03 0 0 1-.077.001c-1.346 0-2.329-1.212-3.3-2.561-1.944-2.7-3.062-7.153-1.304-10.087zM13.065 0a.17.17 0 0 1 .176.146c.125 1.093-.287 2.313-1.102 3.264-.775.9-1.909 1.46-2.96 1.46-.074-.001-.148-.004-.22-.01a.168.168 0 0 1-.156-.141c-.169-1.226.471-2.443 1.126-3.172C10.7.678 11.99.042 13.065 0z" opacity=".7"/>
</svg>
