<svg xmlns="http://www.w3.org/2000/svg" width="224" height="66" viewBox="0 0 224 66">
    <defs>
        <linearGradient id="a" x1="91.49%" x2="-38.317%" y1="4.96%" y2="71.909%">
            <stop offset="0%" stop-color="#00A0FF"/>
            <stop offset=".66%" stop-color="#00A1FF"/>
            <stop offset="26.01%" stop-color="#00BEFF"/>
            <stop offset="51.22%" stop-color="#00D2FF"/>
            <stop offset="76.04%" stop-color="#00DFFF"/>
            <stop offset="100%" stop-color="#00E3FF"/>
        </linearGradient>
        <linearGradient id="b" x1="107.586%" x2="-130.492%" y1="50.016%" y2="50.016%">
            <stop offset="0%" stop-color="#FFE000"/>
            <stop offset="40.87%" stop-color="#FFBD00"/>
            <stop offset="77.54%" stop-color="#FFA500"/>
            <stop offset="100%" stop-color="#FF9C00"/>
        </linearGradient>
        <linearGradient id="c" x1="86.238%" x2="-50.131%" y1="117.851%" y2="294.785%">
            <stop offset="0%" stop-color="#FF3A44"/>
            <stop offset="100%" stop-color="#C31162"/>
        </linearGradient>
        <linearGradient id="d" x1="-18.801%" x2="42.094%" y1="-154.171%" y2="-75.137%">
            <stop offset="0%" stop-color="#32A071"/>
            <stop offset="6.85%" stop-color="#2DA771"/>
            <stop offset="47.62%" stop-color="#15CF74"/>
            <stop offset="80.09%" stop-color="#06E775"/>
            <stop offset="100%" stop-color="#00F076"/>
        </linearGradient>
    </defs>
    <g fill="none" fill-rule="evenodd">
        <path fill="#000" d="M215.45 65.652H8.627C4.08 65.652.354 62 .354 57.541V8.87C.354 4.41 4.08.759 8.627.759H215.45c4.548 0 8.273 3.652 8.273 8.112v48.67c0 4.459-3.725 8.111-8.273 8.111z"/>
        <path fill="#A6A6A6" fill-rule="nonzero" d="M215.45 2.059c3.83 0 6.947 3.056 6.947 6.812v48.67c0 3.755-3.117 6.811-6.947 6.811H8.627c-3.83 0-6.947-3.056-6.947-6.811V8.87c0-3.756 3.117-6.812 6.947-6.812H215.45zm0-1.3H8.627C4.08.759.354 4.411.354 8.871v48.67c0 4.459 3.725 8.111 8.273 8.111H215.45c4.548 0 8.273-3.652 8.273-8.111V8.87c0-4.46-3.725-8.112-8.273-8.112z"/>
        <path fill="#FFF" stroke="#FFF" stroke-width=".625" d="M78.81 17.378c0 1.354-.413 2.44-1.228 3.248-.937.96-2.157 1.442-3.653 1.442-1.429 0-2.65-.49-3.65-1.458-1.003-.981-1.504-2.186-1.504-3.628 0-1.442.5-2.646 1.504-3.62 1-.975 2.221-1.466 3.65-1.466.712 0 1.39.144 2.038.412.645.27 1.17.635 1.55 1.085l-.864.856c-.664-.769-1.568-1.148-2.724-1.148a3.831 3.831 0 0 0-2.713 1.077c-.76.722-1.14 1.657-1.14 2.804 0 1.148.38 2.091 1.14 2.813.767.712 1.671 1.077 2.713 1.077 1.107 0 2.038-.365 2.772-1.085.484-.477.759-1.134.831-1.973H73.93v-1.172h4.807c.058.253.074.498.074.736zM86.436 13.314H81.92v3.082h4.07v1.172h-4.07v3.083h4.515v1.194h-5.793V12.12h5.793zM91.817 21.845H90.54v-8.531h-2.77v-1.195h6.82v1.195h-2.772v8.531zM99.524 21.845V12.12h1.276v9.726zM106.456 21.845h-1.268v-8.531h-2.78v-1.195h6.828v1.195h-2.78z"/>
        <path fill="#FFF" fill-rule="nonzero" stroke="#FFF" stroke-width=".625" d="M122.146 20.594c-.978.984-2.19 1.474-3.636 1.474-1.454 0-2.666-.49-3.644-1.474-.977-.981-1.463-2.186-1.463-3.612 0-1.425.486-2.63 1.463-3.611.978-.984 2.19-1.475 3.644-1.475 1.437 0 2.65.491 3.628 1.483.984.99 1.47 2.186 1.47 3.603 0 1.426-.486 2.63-1.462 3.612zm-6.335-.815c.736.728 1.632 1.093 2.699 1.093 1.059 0 1.963-.365 2.69-1.093.735-.728 1.107-1.663 1.107-2.797 0-1.133-.372-2.068-1.106-2.796-.728-.728-1.632-1.093-2.691-1.093-1.067 0-1.963.365-2.7 1.093-.733.728-1.106 1.663-1.106 2.796 0 1.134.373 2.069 1.107 2.797z"/>
        <path fill="#FFF" stroke="#FFF" stroke-width=".625" d="M125.401 21.845V12.12h1.551l4.823 7.564h.056l-.056-1.87V12.12h1.277v9.726h-1.332l-5.05-7.937h-.057l.056 1.878v6.06h-1.268z"/>
        <path fill="#FFF" fill-rule="nonzero" d="M113.09 36.049c-3.887 0-7.062 2.9-7.062 6.9 0 3.97 3.175 6.9 7.061 6.9 3.895 0 7.07-2.93 7.07-6.9 0-4-3.175-6.9-7.07-6.9zm0 11.082c-2.133 0-3.968-1.725-3.968-4.181 0-2.489 1.835-4.184 3.967-4.184s3.975 1.695 3.975 4.184c0 2.456-1.843 4.181-3.975 4.181zM97.682 36.05c-3.895 0-7.061 2.9-7.061 6.9 0 3.97 3.166 6.9 7.06 6.9 3.893 0 7.062-2.93 7.062-6.9 0-4-3.169-6.9-7.061-6.9zm0 11.082c-2.135 0-3.975-1.725-3.975-4.181 0-2.489 1.84-4.184 3.975-4.184 2.132 0 3.967 1.695 3.967 4.184 0 2.456-1.835 4.181-3.967 4.181zM79.35 38.164v2.932h7.142c-.21 1.639-.768 2.843-1.624 3.683-1.042 1.014-2.666 2.14-5.518 2.14-4.395 0-7.836-3.479-7.836-7.788 0-4.31 3.441-7.787 7.836-7.787 2.377 0 4.106.91 5.382 2.09l2.107-2.066c-1.785-1.67-4.159-2.954-7.489-2.954-6.027 0-11.092 4.808-11.092 10.717 0 5.91 5.065 10.718 11.092 10.718 3.258 0 5.704-1.047 7.628-3.01 1.97-1.932 2.585-4.65 2.585-6.844 0-.681-.058-1.308-.161-1.831H79.35zm74.965 2.273c-.581-1.543-2.374-4.388-6.027-4.388-3.62 0-6.633 2.796-6.633 6.9 0 3.866 2.983 6.9 6.98 6.9 3.233 0 5.099-1.933 5.866-3.058l-2.399-1.568c-.8 1.148-1.89 1.908-3.466 1.908-1.566 0-2.689-.703-3.409-2.09l9.413-3.819-.325-.785zm-9.597 2.298c-.08-2.66 2.108-4.024 3.676-4.024 1.228 0 2.27.603 2.618 1.465l-6.294 2.559zm-7.65 6.694h3.094v-20.28h-3.094v20.28zm-5.067-11.843h-.103c-.695-.807-2.021-1.537-3.7-1.537-3.525 0-6.747 3.034-6.747 6.923 0 3.867 3.222 6.877 6.746 6.877 1.68 0 3.006-.736 3.7-1.568h.104v.99c0 2.638-1.437 4.056-3.756 4.056-1.89 0-3.063-1.339-3.547-2.464l-2.69 1.1c.775 1.83 2.829 4.081 6.237 4.081 3.628 0 6.689-2.093 6.689-7.185V36.47H132v1.117zm-3.539 9.545c-2.132 0-3.917-1.75-3.917-4.159 0-2.431 1.785-4.206 3.917-4.206 2.102 0 3.758 1.775 3.758 4.206 0 2.41-1.656 4.16-3.758 4.16zm40.339-17.981h-7.4v20.279h3.086v-7.684h4.314c3.427 0 6.788-2.431 6.788-6.299 0-3.865-3.37-6.296-6.788-6.296zm.08 9.774h-4.394v-6.953h4.395a3.553 3.553 0 0 1 3.619 3.475 3.574 3.574 0 0 1-3.62 3.478zm19.076-2.914c-2.23 0-4.548.966-5.502 3.105l2.739 1.125c.589-1.125 1.673-1.49 2.819-1.49 1.6 0 3.224.943 3.249 2.608v.213c-.559-.317-1.754-.785-3.225-.785-2.949 0-5.954 1.592-5.954 4.563 0 2.717 2.416 4.467 5.131 4.467 2.077 0 3.223-.918 3.942-1.987h.106v1.567h2.98v-7.779c0-3.595-2.738-5.607-6.285-5.607zm-.373 11.113c-1.009 0-2.415-.49-2.415-1.717 0-1.57 1.754-2.172 3.272-2.172 1.359 0 1.996.294 2.82.681-.241 1.878-1.89 3.208-3.677 3.208zM205.1 36.454l-3.547 8.791h-.105l-3.667-8.79h-3.328l5.51 12.284-3.144 6.837h3.224l8.49-19.122H205.1zM177.285 49.43h3.094v-20.28h-3.094v20.28z"/>
        <path fill="url(#a)" d="M1.652 41.385c-.486-.498-.768-1.275-.768-2.281V3.226c0-1.006.282-1.782.768-2.281l.12-.11 20.504 20.097v.474L1.772 41.503l-.12-.118z" transform="matrix(1 0 0 -1 15.968 54.375)"/>
        <path fill="url(#b)" d="M7.489.034L.662 6.736v.475l6.835 6.702.153-.087 8.095-4.516c2.31-1.282 2.31-3.39 0-4.68L7.65.12 7.49.034z" transform="matrix(1 0 0 -1 37.582 40.18)"/>
        <path fill="url(#c)" d="M28.333 14.317l-6.989 6.852L.72.945C1.487.154 2.738.059 4.16.849l24.172 13.468" transform="matrix(1 0 0 -1 16.9 54.375)"/>
        <path fill="url(#d)" d="M28.333 6.852L4.16 20.32c-1.423.782-2.674.687-3.441-.104L21.344 0l6.989 6.852z" transform="matrix(1 0 0 -1 16.9 33.206)"/>
    </g>
</svg>
