<svg xmlns="http://www.w3.org/2000/svg" width="14" height="14" viewBox="0 0 14 14">
    <path fill="#FFF" fill-rule="evenodd" d="M13.317 9.695a1.197 1.197 0 0 1 0 1.69l-.28.282-3.37-3.38.28-.282a1.218 1.218 0 0 1 1.686 0l1.684 1.69zm-4.253-.314l3.27 3.266a4.149 4.149 0 0 1-5.663-.2L1.545 7.323c-1.552-1.55-1.607-4.018-.2-5.656l3.269 3.266a.868.868 0 0 0 .06 1.15l3.238 3.239a.87.87 0 0 0 1.152.059zm-3.08-7.02a1.197 1.197 0 0 1 0 1.69l-.28.282-3.37-3.38.28-.281a1.218 1.218 0 0 1 1.685 0l1.685 1.69z"/>
</svg>
