<svg xmlns="http://www.w3.org/2000/svg" width="20" height="20" viewBox="0 0 20 20">
    <path fill="#FFF" fill-rule="nonzero" d="M10 6.14c-2.262 0-4.102 1.748-4.102 3.897s1.84 3.897 4.102 3.897c2.262 0 4.102-1.748 4.102-3.897S12.262 6.141 10 6.141zm0 0c-2.262 0-4.102 1.748-4.102 3.897s1.84 3.897 4.102 3.897c2.262 0 4.102-1.748 4.102-3.897S12.262 6.141 10 6.141zM17.07.5H2.93C1.312.5 0 1.747 0 3.283v13.434C0 18.253 1.313 19.5 2.93 19.5h14.14c1.617 0 2.93-1.247 2.93-2.783V3.283C20 1.747 18.687.5 17.07.5zM10 15.047c-2.906 0-5.273-2.249-5.273-5.01 0-2.76 2.367-5.01 5.273-5.01 2.906 0 5.273 2.25 5.273 5.01 0 2.761-2.367 5.01-5.273 5.01zm6.445-10.02c-.644 0-1.172-.5-1.172-1.113 0-.612.528-1.113 1.172-1.113.645 0 1.172.5 1.172 1.113 0 .612-.527 1.113-1.172 1.113zM10 6.141c-2.262 0-4.102 1.747-4.102 3.896s1.84 3.897 4.102 3.897c2.262 0 4.102-1.748 4.102-3.897S12.262 6.141 10 6.141zm0 0c-2.262 0-4.102 1.747-4.102 3.896s1.84 3.897 4.102 3.897c2.262 0 4.102-1.748 4.102-3.897S12.262 6.141 10 6.141zm0 0c-2.262 0-4.102 1.747-4.102 3.896s1.84 3.897 4.102 3.897c2.262 0 4.102-1.748 4.102-3.897S12.262 6.141 10 6.141z" opacity=".7"/>
</svg>
