<svg xmlns="http://www.w3.org/2000/svg" width="20" height="20" viewBox="0 0 20 20">
    <path fill="#202124" fill-rule="evenodd" d="M19.476 14.043c.697.698.7 1.833 0 2.535l-.421.422L14 11.93l.421-.422c.676-.678 1.854-.677 2.528 0l2.527 2.535zm-6.38-.472l4.904 4.9a6.223 6.223 0 0 1-8.493-.301l-7.689-7.685C-.51 8.159-.592 4.457 1.517 2L6.42 6.9c-.4.514-.385 1.252.089 1.725l4.858 4.857c.473.474 1.21.49 1.728.09zM8.476 3.043c.697.698.7 1.833 0 2.534L8.055 6 3 .93l.421-.422c.676-.678 1.854-.677 2.528 0l2.527 2.535z" opacity=".5"/>
</svg>
