<svg xmlns="http://www.w3.org/2000/svg" width="24" height="12" viewBox="0 0 24 12">
    <path fill="#FFF" fill-rule="evenodd" d="M20.655 7.63c.797.687 1.637 1.333 2.35 2.089.316.336.615.683.843 1.073.324.554.03 1.164-.532 1.197l-3.496-.002c-.902.066-1.621-.254-2.226-.8-.484-.435-.932-.898-1.398-1.349a3.215 3.215 0 0 0-.63-.494c-.476-.274-.89-.19-1.163.25-.278.447-.341.943-.369 1.441-.037.728-.286.919-1.113.952-1.767.074-3.445-.162-5.003-.95-1.374-.695-2.44-1.675-3.366-2.785C2.746 6.091 1.364 3.716.122 1.275-.159.725.045.429.732.419 1.873.399 3.014.4 4.156.417c.464.006.77.241.95.628a18.171 18.171 0 0 0 2.32 3.799c.252.315.51.63.876.85.405.246.714.165.905-.234a2.38 2.38 0 0 0 .201-.797c.09-.932.102-1.863-.056-2.792C9.255 1.29 8.885.916 8.23.806 7.896.75 7.946.64 8.107.472 8.388.18 8.653 0 9.18 0h3.951c.622.108.76.355.845.908l.004 3.878c-.007.215.12.85.557.992.35.1.58-.146.79-.342.946-.887 1.62-1.936 2.224-3.021a18.6 18.6 0 0 0 .721-1.469c.165-.368.425-.548.893-.54l3.803.003c.113 0 .227.001.336.018.641.096.817.34.619.893-.312.867-.919 1.59-1.512 2.316-.634.776-1.312 1.524-1.941 2.304-.578.713-.532 1.072.185 1.69z" opacity=".7"/>
</svg>
